<svg xmlns="http://www.w3.org/2000/svg"  viewBox="0 0 28.933 28.933"><defs><style>.a{fill:#2ed0f8;}</style></defs><path class="a" d="M-854.508,53.688l-4.515-4.675-4.676,4.515a2,2,0,0,1-2.828-.049l-2.084-2.157a2,2,0,0,1,.049-2.829l4.675-4.515L-868.4,39.3a2,2,0,0,1,.049-2.828l2.158-2.084a2,2,0,0,1,2.828.049l4.515,4.676,4.676-4.515a2,2,0,0,1,2.828.049l2.084,2.158a2,2,0,0,1-.049,2.828l-4.676,4.516,4.516,4.676a2,2,0,0,1-.049,2.828l-2.158,2.083a1.992,1.992,0,0,1-1.389.561A2,2,0,0,1-854.508,53.688Z" transform="translate(672.704 568.034) rotate(43)"/></svg>